<?xml version="1.0" encoding="UTF-8" standalone="no"?>
<!-- Created with Inkscape (http://www.inkscape.org/) -->

<svg
   width="9mm"
   height="15mm"
   viewBox="0 0 9 15"
   version="1.1"
   id="svg1"
   inkscape:version="1.3.2 (091e20ef0f, 2023-11-25, custom)"
   sodipodi:docname="logo.svg"
   xmlns:inkscape="http://www.inkscape.org/namespaces/inkscape"
   xmlns:sodipodi="http://sodipodi.sourceforge.net/DTD/sodipodi-0.dtd"
   xmlns="http://www.w3.org/2000/svg"
   xmlns:svg="http://www.w3.org/2000/svg">
  <sodipodi:namedview
     id="namedview1"
     pagecolor="#ffffff"
     bordercolor="#000000"
     borderopacity="0.25"
     inkscape:showpageshadow="2"
     inkscape:pageopacity="0.0"
     inkscape:pagecheckerboard="0"
     inkscape:deskcolor="#d1d1d1"
     inkscape:document-units="mm"
     inkscape:zoom="5.8961275"
     inkscape:cx="90.313515"
     inkscape:cy="-32.733349"
     inkscape:window-width="2560"
     inkscape:window-height="1374"
     inkscape:window-x="0"
     inkscape:window-y="0"
     inkscape:window-maximized="1"
     inkscape:current-layer="layer1" />
  <defs
     id="defs1" />
  <g
     inkscape:label="Layer 1"
     inkscape:groupmode="layer"
     id="layer1">
    <path
       id="path1470"
       mask="none"
       style="fill:#000000;fill-opacity:1;fill-rule:evenodd;stroke:none;stroke-width:0.15;stroke-linecap:round;stroke-linejoin:round;stroke-opacity:1"
       d="m 4.4999837,0.37878825 -0.015503,5.1676e-4 -0.015503,0.002067 -0.014986,0.003101 -0.014986,0.004134 -0.014986,0.005168 -0.013953,0.006718 -0.014469,0.008268 -0.012919,0.008785 L 4.2054281,0.550354 4.0281779,0.69194743 3.8514445,0.84232585 3.6757446,1.002006 3.5015951,1.1704712 3.3300293,1.3482381 3.1605306,1.5353068 2.9941325,1.7327108 2.8318685,1.9399333 2.6742554,2.157491 2.5212931,2.3848674 2.3734985,2.6230957 2.2324219,2.8721761 2.0975464,3.1321086 1.9699056,3.4028931 1.8500163,3.6850464 l -0.00362,0.010852 -0.0031,0.010335 -0.0031,0.010335 -0.00207,0.010335 -0.00207,0.010852 -0.00103,0.010335 -5.168e-4,0.010335 v 0.010335 l 5.168e-4,0.010335 0.00103,0.010335 0.00103,0.010335 0.00207,0.010335 0.00207,0.00982 0.0031,0.00982 0.00258,0.010335 0.00413,0.00879 0.00413,0.0093 0.00517,0.00879 0.00465,0.00879 0.0062,0.00827 0.0062,0.00775 0.00568,0.00827 0.00723,0.00775 0.00672,0.00723 0.00827,0.00672 0.00775,0.00723 0.00827,0.0062 0.00878,0.00568 0.00878,0.00517 0.0093,0.00517 0.00982,0.00362 0.010335,0.00413 0.060978,0.021704 0.062012,0.021187 0.013436,0.00517 0.012402,0.0062 0.012402,0.00672 0.011369,0.00723 0.010852,0.00775 0.00982,0.0093 0.00879,0.00878 0.0093,0.00982 0.00775,0.010335 0.00723,0.010852 0.00672,0.010852 0.0062,0.011886 0.00517,0.011369 0.00362,0.012402 0.00413,0.012402 0.0031,0.012402 0.00207,0.012919 0.00103,0.012919 5.167e-4,0.012919 v 0.012919 l -0.00103,0.012919 -0.00207,0.012919 -0.00155,0.012919 -0.0031,0.012919 -0.00413,0.012402 -0.00517,0.012402 -0.00568,0.012402 -0.00723,0.011369 -0.00672,0.011886 -0.00827,0.010852 -0.00879,0.010852 L 2.163144,4.3511484 1.9740082,4.5371836 1.7879731,4.7345875 1.606072,4.9428435 1.516155,5.0513641 1.427788,5.1629852 1.340455,5.2771901 1.254672,5.3944956 1.169923,5.5149017 1.086724,5.6378916 1.005075,5.7644988 0.9249765,5.8942067 0.8469451,6.0270151 l -0.0769979,0.135909 -0.005684,0.010852 -0.005168,0.011369 -0.004134,0.011369 -0.004134,0.011369 -0.002584,0.011369 -0.002067,0.011886 -0.002067,0.011369 -0.001034,0.011886 v 0.011369 0.011369 l 0.001034,0.011369 0.002067,0.011369 0.002067,0.011369 0.003101,0.010852 0.003101,0.010852 0.003617,0.010852 0.005168,0.010335 0.005168,0.010335 0.005684,0.00982 0.006201,0.010335 0.006718,0.00878 0.007235,0.00879 0.007751,0.00827 0.008268,0.00775 0.008785,0.00827 0.009302,0.00672 0.009819,0.00723 0.009819,0.0062 0.0108521,0.00568 0.0103353,0.00517 0.0113688,0.00413 0.0118856,0.00362 0.1188558,0.03359 0.1214396,0.031523 0.1229899,0.029972 0.125057,0.027905 0.014469,0.00362 0.013953,0.00517 0.012919,0.00517 0.012919,0.00568 0.011886,0.00723 0.011369,0.00775 0.010335,0.00827 0.010335,0.00879 0.00879,0.010335 0.0093,0.010335 0.00775,0.010335 0.00723,0.011369 0.00568,0.011885 0.0062,0.011886 0.00517,0.012402 0.00362,0.012919 0.0031,0.012919 0.00207,0.012919 0.00207,0.013436 0.00103,0.013436 v 0.012919 l -0.00103,0.013436 -0.00207,0.013436 -0.00207,0.012919 -0.00362,0.013436 -0.00413,0.012919 -0.00517,0.012919 -0.0062,0.012919 -0.00672,0.011886 -0.00827,0.011885 -0.00879,0.011886 L 1.4825968,6.935494 1.3115479,7.1168783 1.1430827,7.3070475 0.97823486,7.5075521 0.81700439,7.7178752 0.66094157,7.9380168 0.58446045,8.0522217 0.50952962,8.1690104 0.43563232,8.288383 l -0.072347,0.1219564 -0.0707967,0.1245402 -0.0692464,0.1276407 -0.005168,0.010335 -0.004651,0.010852 -0.004134,0.010335 -0.003101,0.010852 -0.003101,0.010852 -0.002067,0.010852 -0.00155,0.011369 -0.001034,0.010852 -5.1676e-4,0.010852 5.1676e-4,0.010852 5.1676e-4,0.010852 0.001034,0.010852 0.002067,0.010852 0.002067,0.010335 0.003101,0.010335 0.002584,0.010335 0.004134,0.00982 0.005168,0.010335 0.005168,0.00982 0.004651,0.00879 0.006201,0.0093 0.005684,0.00878 0.007235,0.00827 0.007235,0.00775 0.007751,0.00827 0.008268,0.00672 0.008785,0.00723 0.008785,0.00568 0.0103353,0.0062 0.009819,0.00517 0.0103353,0.00465 0.0103353,0.00413 0.29765625,0.1049031 0.31109212,0.095085 0.32556145,0.083716 0.1674317,0.03669 0.171049,0.033073 0.1741495,0.029456 0.1772502,0.025322 0.1803508,0.02067 0.1834513,0.017053 0.1865519,0.011885 0.1891358,0.00672 0.1922363,0.00207 0.1948201,-0.0031 h 0.010335 l 0.00982,5.168e-4 0.00982,0.00103 0.010335,0.00103 0.00982,0.00207 0.00879,0.00155 0.0093,0.0031 0.00879,0.0031 0.0093,0.00413 0.00879,0.00362 0.00827,0.00413 0.00775,0.00517 0.00827,0.00517 0.00775,0.00465 0.00723,0.0062 0.00672,0.00568 0.00723,0.00723 0.00672,0.00723 0.0062,0.00672 0.00568,0.00827 0.0062,0.00775 0.00517,0.00827 0.00465,0.00775 0.00517,0.00878 0.00413,0.0093 0.00413,0.00878 0.00258,0.0093 0.0031,0.00879 0.00207,0.00982 0.00207,0.010335 0.00103,0.00982 0.00103,0.010335 0.00775,0.094051 0.010335,0.094568 0.010852,0.095085 0.011885,0.096118 0.013953,0.096118 0.014469,0.09715 0.01602,0.09715 0.01757,0.09767 0.00207,0.0083 0.00207,0.0078 0.00207,0.0083 0.0031,0.0078 0.00258,0.0078 0.0031,0.0072 0.00723,0.01447 0.00775,0.01344 0.0093,0.01292 0.00982,0.01189 0.010852,0.01137 0.011369,0.01033 0.011886,0.01034 0.012919,0.0088 0.013953,0.0072 0.00672,0.0031 0.00723,0.0026 0.00672,0.0031 0.00723,0.0031 0.00672,0.0021 0.00827,0.0021 0.00775,0.0021 0.00827,5.17e-4 0.2475301,0.03307 0.2439128,0.02377 0.2402954,0.01447 0.2356445,0.0072 0.2315104,-10e-4 0.2263428,-0.0078 0.2216919,-0.01499 0.2160075,-0.02119 0.00827,-10e-4 0.00775,-10e-4 0.00827,-0.0021 0.00775,-0.0021 0.00827,-0.0021 0.00775,-0.0031 0.00723,-0.0031 0.00672,-0.0026 0.00723,-0.0041 0.00672,-0.0041 0.00723,-0.0041 0.00723,-0.0036 0.00672,-0.0052 0.0062,-0.0052 0.011886,-0.01034 0.011369,-0.01137 0.00465,-0.0057 0.00517,-0.0062 0.00517,-0.0072 0.00517,-0.0067 0.00362,-0.0072 0.00413,-0.0067 0.00413,-0.0072 0.00362,-0.0067 0.0031,-0.0083 0.0031,-0.0078 0.0031,-0.0083 0.00207,-0.0078 0.00207,-0.0083 0.00155,-0.0078 0.018604,-0.10232 0.017053,-0.101285 0.01602,-0.100769 0.013953,-0.100253 0.012919,-0.1002486 0.011886,-0.098702 0.010335,-0.098702 0.00878,-0.098185 0.00103,-0.00982 0.00207,-0.010335 0.00207,-0.00982 0.00207,-0.00982 0.00258,-0.010335 0.0031,-0.00879 0.00413,-0.0093 0.00413,-0.00878 0.00465,-0.00878 0.00517,-0.00827 0.00517,-0.00775 0.00568,-0.00827 0.0062,-0.00672 0.0062,-0.00723 0.00568,-0.00672 0.00723,-0.00723 0.00672,-0.0062 0.00723,-0.00568 0.00775,-0.00517 0.00827,-0.00517 0.00775,-0.00465 0.00827,-0.00413 0.00878,-0.00413 0.0093,-0.00362 0.00878,-0.0031 0.00879,-0.0031 0.0093,-0.00207 0.00982,-0.00207 0.00982,-0.00103 0.010335,-5.168e-4 0.00982,-5.167e-4 h 0.010335 l 0.1948201,0.0031 0.1917196,-0.00207 0.1896525,-0.00723 0.1860352,-0.011886 0.1834513,-0.016536 0.1803507,-0.021187 0.177767,-0.025321 0.1741496,-0.029456 0.1705322,-0.033073 0.1679484,-0.03669 0.164331,-0.039791 0.1607137,-0.04341 0.1576132,-0.045992 0.1539957,-0.049093 0.2971395,-0.1049031 0.010852,-0.00413 0.010335,-0.00517 0.00982,-0.00465 0.010335,-0.0062 0.00878,-0.0062 0.00878,-0.00672 0.00827,-0.00723 0.00775,-0.00775 0.00723,-0.00827 0.00672,-0.00775 0.0062,-0.0093 0.0062,-0.00878 0.00465,-0.00878 0.00517,-0.010335 0.00517,-0.00982 0.00362,-0.010335 0.00413,-0.00982 0.0031,-0.010335 0.00207,-0.010852 0.00207,-0.010335 0.00103,-0.010852 L 8.8014741,8.771683 8.8019909,8.760831 8.8014741,8.749462 8.8004441,8.73861 8.7994141,8.727758 8.7973441,8.716906 8.7947641,8.706054 8.7916641,8.695202 8.7875341,8.68435 8.7823641,8.674015 8.7777141,8.663163 8.7085124,8.5359131 8.6377157,8.4108561 8.5653687,8.2888997 8.4914714,8.1695272 8.4165405,8.0532552 8.3400594,7.9390503 8.2625448,7.8274292 8.1839966,7.7183919 8.1038981,7.6124552 8.0227661,7.5085856 7.9411174,7.4072998 7.8579183,7.3080811 7.7742025,7.2114461 7.6894531,7.117395 7.604187,7.0259277 l -0.0863,-0.0894 -0.00982,-0.011369 -0.0093,-0.011369 -0.00775,-0.011886 -0.00723,-0.012402 -0.00568,-0.012402 -0.00517,-0.012919 -0.00413,-0.012919 -0.0031,-0.013436 -0.00258,-0.013436 -0.00207,-0.013436 -0.00103,-0.013436 V 6.784082 L 7.461057,6.770646 7.463127,6.75721 7.465197,6.744291 7.468297,6.731372 7.471917,6.718453 7.477087,6.706051 7.483287,6.694165 7.490007,6.68228 7.497237,6.670911 7.504987,6.660576 7.514287,6.650241 7.523077,6.639906 7.533412,6.631116 7.543747,6.622846 7.555116,6.615096 7.567002,6.607866 7.579921,6.602186 7.59284,6.597016 7.606793,6.591846 7.621262,6.588226 7.746319,6.560321 7.8693089,6.530349 7.9902318,6.498826 l 0.1193725,-0.03359 0.011886,-0.00362 0.010852,-0.00413 0.010852,-0.00517 0.010335,-0.00568 0.010335,-0.0062 0.00982,-0.00723 0.0093,-0.00672 0.00878,-0.00827 0.00775,-0.00775 0.00827,-0.00827 0.00723,-0.00879 0.00672,-0.00878 0.0062,-0.010335 0.00568,-0.00982 0.00517,-0.010335 0.00413,-0.010335 0.00362,-0.010852 0.0031,-0.010852 0.0031,-0.010852 0.00207,-0.011369 0.00207,-0.011369 0.00103,-0.011369 V 6.265769 6.2544 L 8.2568743,6.242514 8.2548043,6.231145 8.2527343,6.219259 8.2496343,6.20789 8.2460143,6.196521 8.2418843,6.185152 8.2367143,6.173783 8.2310343,6.162931 8.1540243,6.0270223 8.0759928,5.8942139 7.9958944,5.764506 7.9142456,5.6378988 7.8310465,5.5149089 7.7462972,5.3945028 7.6605143,5.2771973 7.5731812,5.1629924 7.4848145,5.0513713 7.3948975,4.9428507 7.3044637,4.8374308 7.2129964,4.7345947 7.1199788,4.6343424 l -0.093018,-0.097152 -0.094568,-0.094568 -0.094568,-0.091467 -0.010335,-0.010335 -0.00878,-0.010852 -0.00827,-0.010852 -0.00672,-0.011886 -0.00723,-0.011369 -0.00568,-0.012402 -0.00517,-0.012402 -0.00413,-0.012402 -0.0031,-0.012919 -0.00207,-0.012919 -0.00155,-0.012919 -0.00103,-0.012919 v -0.012919 l 5.168e-4,-0.012919 0.00103,-0.012919 0.00207,-0.012919 0.0031,-0.012402 0.00362,-0.012402 0.00517,-0.012402 0.00517,-0.011369 0.00568,-0.011886 0.00723,-0.010852 0.00672,-0.010852 0.00827,-0.010335 0.00879,-0.00982 0.010335,-0.00878 0.00982,-0.0093 0.010852,-0.00775 0.011369,-0.00723 0.011885,-0.00672 0.012919,-0.0062 0.013436,-0.00517 0.031006,-0.010335 0.030489,-0.010852 0.061495,-0.021704 0.00982,-0.00413 0.010335,-0.00362 0.00982,-0.00517 0.0093,-0.00517 0.00878,-0.00568 0.00775,-0.0062 0.00827,-0.00723 0.00775,-0.00672 0.00723,-0.00723 0.00672,-0.00775 0.00723,-0.00827 0.0062,-0.00775 0.00568,-0.00827 0.00517,-0.00879 0.00517,-0.00879 0.00362,-0.0093 0.00413,-0.00879 0.00413,-0.010335 0.0031,-0.00982 0.00258,-0.00982 0.00207,-0.010335 0.00103,-0.010335 0.00103,-0.010335 5.167e-4,-0.010335 v -0.010335 l -5.167e-4,-0.010335 -0.00103,-0.010335 -0.00207,-0.010852 -0.00207,-0.010335 -0.00258,-0.010335 -0.0031,-0.010335 -0.00413,-0.010852 L 7.0367798,3.4028931 6.909139,3.1321086 6.7742635,2.8721761 6.6331868,2.6230957 6.4853923,2.3848674 6.33243,2.157491 6.1748169,1.9399333 6.0125529,1.7327108 5.8461548,1.5353068 5.6771729,1.3482381 5.5050903,1.1704712 5.3309408,1.002006 5.1552409,0.84232585 4.9785075,0.69194743 4.8012573,0.550354 4.6245239,0.41754557 l -0.013436,-0.008785 -0.013953,-0.008268 -0.014469,-0.006718 -0.014986,-0.005168 -0.014986,-0.004134 -0.014986,-0.003101 -0.015503,-0.002067 z M 4.483964,3.2029053 c 0.02936,-3.352e-4 0.058536,-1.316e-4 0.08785,0.00155 0.2005534,0.011093 0.3979597,0.071899 0.5705078,0.1746663 0.2059011,0.1219916 0.3765082,0.3030211 0.4852417,0.5162476 0.088075,0.1717485 0.1353959,0.3640695 0.1374593,0.5570719 2.297e-4,0.3676027 -6.21e-5,0.7351717 0,1.1027751 -8.556e-4,0.028092 0.0029,0.056679 -0.00413,0.084233 -0.00881,0.037869 -0.037307,0.070747 -0.073897,0.084232 -0.040951,0.015096 -0.089024,0.011978 -0.1260905,-0.011885 -0.03378,-0.021495 -0.053334,-0.06079 -0.054777,-0.1002523 -5.385e-4,-0.075742 -3.625e-4,-0.151627 -5.168e-4,-0.2273763 -7.72e-5,-0.3103505 2.635e-4,-0.6203429 0,-0.9306926 -1.073e-4,-0.0078 -2.498e-4,-0.017524 -5.168e-4,-0.024288 -0.0028,-0.073806 -0.01405,-0.1472236 -0.033073,-0.2185913 -0.00278,-0.010495 -0.00526,-0.019287 -0.00827,-0.029456 -0.00923,-0.030788 -0.020379,-0.063427 -0.033073,-0.094051 -0.00834,-0.020295 -0.018335,-0.041644 -0.028422,-0.062012 -0.00402,-0.0082 -0.00858,-0.017582 -0.012402,-0.024805 -0.081941,-0.1551144 -0.205333,-0.2879436 -0.3534696,-0.3818879 -0.014524,-0.00927 -0.030661,-0.019489 -0.046509,-0.028422 -0.00716,-0.00403 -0.015841,-0.00852 -0.022221,-0.011886 -0.044799,-0.023689 -0.091142,-0.043815 -0.1390096,-0.060461 -0.012127,-0.00421 -0.022463,-0.00764 -0.034623,-0.011369 -0.013627,-0.0042 -0.028778,-0.00859 -0.043408,-0.012402 -0.00783,-0.00201 -0.017395,-0.00462 -0.024288,-0.0062 -0.035563,-0.00825 -0.071232,-0.014308 -0.107487,-0.018603 -0.019845,-0.0024 -0.040968,-0.00411 -0.059945,-0.00517 -0.0064,-4.394e-4 -0.014905,-7.555e-4 -0.020154,-0.00103 -0.013083,-4.529e-4 -0.026183,-0.00102 -0.039274,-0.00103 -0.013303,2.71e-5 -0.028146,5.206e-4 -0.040308,0.00103 -0.00759,2.759e-4 -0.016695,6.678e-4 -0.023254,0.00103 -0.048035,0.00308 -0.096055,0.00966 -0.1431437,0.019637 -0.011954,0.00253 -0.021894,0.00485 -0.03359,0.00775 -0.015891,0.00391 -0.033364,0.00902 -0.048059,0.013436 -0.00684,0.00205 -0.014898,0.00431 -0.020671,0.0062 -0.054439,0.017767 -0.1075163,0.040398 -0.1581299,0.067179 -0.013483,0.00711 -0.028934,0.015983 -0.042891,0.024288 -0.00649,0.00387 -0.014646,0.00843 -0.020154,0.011886 -0.1507861,0.094182 -0.2761175,0.2288026 -0.3591512,0.3860229 -0.012805,0.024166 -0.025633,0.050946 -0.03669,0.076998 -0.013747,0.032441 -0.026352,0.068202 -0.03669,0.1028361 -0.00104,0.00332 -0.00321,0.00975 -0.00413,0.012919 -0.021195,0.07425 -0.03372,0.1512678 -0.037207,0.2284098 -5.358e-4,0.010736 -8.579e-4,0.021577 -0.00103,0.033073 -2.041e-4,0.447799 6.2e-5,0.8957877 0,1.3435872 -2.44e-4,0.063408 3.963e-4,0.1267693 -5.168e-4,0.1901693 -0.00118,0.03963 -0.0064,0.082118 -0.031006,0.1147217 -0.019988,0.027024 -0.053384,0.040732 -0.0863,0.042375 -0.040016,9.847e-4 -0.07986,1.65e-5 -0.1198893,5.168e-4 -0.02587,4.812e-4 -0.052909,0.014001 -0.064079,0.038241 -0.011349,0.02454 -0.010892,0.054242 0.00103,0.078548 0.011838,0.023943 0.038721,0.036646 0.064596,0.03669 0.5492423,1.65e-4 1.0987177,-4.44e-5 1.6479614,0 0.2791585,-7.98e-5 0.5580021,2.688e-4 0.8371582,0 0.025816,-5.149e-4 0.052933,-0.01406 0.064079,-0.038241 0.011349,-0.02454 0.010891,-0.054242 -0.00103,-0.078548 -0.01182,-0.023948 -0.038728,-0.036637 -0.064596,-0.03669 -0.6387808,-1.65e-4 -1.277897,4.43e-5 -1.9166789,0 -0.025685,-7.533e-4 -0.051588,0.00171 -0.076998,-0.0031 -0.038342,-0.0068 -0.072795,-0.032265 -0.088367,-0.068213 -0.01634,-0.037501 -0.016377,-0.082294 0.00103,-0.1193725 0.01639,-0.035482 0.052165,-0.06052 0.090434,-0.066663 v -0.892452 c -0.0013,-0.030621 0.0036,-0.062147 0.021187,-0.08785 0.021941,-0.033855 0.062088,-0.052741 0.1018025,-0.053743 0.2414778,-2.829e-4 0.4830239,-4.369e-4 0.7245036,-5.167e-4 0.03467,-0.00159 0.068189,0.015374 0.091984,0.039791 0.015323,0.016077 0.030019,0.033648 0.037724,0.054777 0.012985,0.037583 0.00107,0.079492 -0.020154,0.111621 -0.1025843,0.1371375 -0.2057958,0.2737794 -0.3085083,0.4108277 -0.028493,0.040475 -0.081269,0.057945 -0.129191,0.05116 -0.033313,-0.00423 -0.06516,-0.022772 -0.082682,-0.051677 C 4.1608751,5.4272482 4.1584219,5.367755 4.1863078,5.3242228 4.2386057,5.2537644 4.2913705,5.1836581 4.3439209,5.113383 H 4.0100911 V 5.8864624 H 4.9898763 V 5.5262777 H 4.7108236 c -0.034349,0.00157 -0.067237,-0.014673 -0.090951,-0.038757 -0.015631,-0.016209 -0.030899,-0.033891 -0.038757,-0.055294 -0.012995,-0.037582 -0.00107,-0.079497 0.020154,-0.1116211 C 4.704558,5.182522 4.8084285,5.0446718 4.911845,4.9066773 c 0.029574,-0.039366 0.082633,-0.055797 0.1302246,-0.048059 0.032833,0.00491 0.063719,0.024454 0.080615,0.053227 0.026095,0.043067 0.028635,0.1016834 0.00103,0.144694 C 5.0714456,5.1270083 5.0181252,5.19659 4.9655847,5.2668624 h 0.1421102 c 0.030643,-0.00127 0.062793,0.00445 0.088367,0.022221 0.033253,0.021939 0.051539,0.061551 0.05271,0.1007691 2.83e-4,0.1654987 -7.98e-5,0.3311098 0,0.4966105 h 0.4196127 c 0.042224,7.697e-4 0.085254,-0.00234 0.127124,0.00465 0.082594,0.012666 0.1596788,0.057353 0.2103231,0.1240234 0.051614,0.066598 0.07476,0.1530877 0.067696,0.2366781 -0.00615,0.082074 -0.042763,0.1620541 -0.1033529,0.2180745 -0.060612,0.057059 -0.1438978,0.088299 -0.2268595,0.088883 -0.8040182,1.242e-4 -1.6077204,-3.55e-5 -2.4117391,0 -0.038828,-6.96e-4 -0.078155,0.00189 -0.1167887,-0.0031 C 3.1337875,6.545595 3.0566142,6.505112 3.003951,6.4425008 2.949823,6.3793478 2.922674,6.2953497 2.925403,6.2125407 2.927203,6.1301927 2.959563,6.0483163 3.01687,5.9887817 3.073388,5.9289807 3.1530759,5.8929977 3.2349446,5.8874959 V 4.6157389 C 3.2352409,4.5540257 3.2342493,4.4924398 3.2354614,4.4307373 3.241052,4.2264154 3.2980566,4.0238293 3.3992757,3.8462769 3.5190504,3.6349334 3.7002821,3.4592177 3.9155233,3.3465658 4.090051,3.2546423 4.2867242,3.2051344 4.483964,3.2029053 Z M 3.8741821,6.7122518 c 0.028664,-0.00114 0.058194,0.0055 0.082166,0.021704 0.033927,0.022034 0.052864,0.062494 0.053743,0.1023193 2.626e-4,0.2612546 -7.09e-5,0.5221584 0,0.7834147 -8.59e-4,0.028386 0.00317,0.057457 -0.00413,0.085266 -0.00922,0.038523 -0.038839,0.071511 -0.076481,0.084232 -0.040946,0.014085 -0.089233,0.010502 -0.1255737,-0.013953 -0.033418,-0.022068 -0.051717,-0.061855 -0.05271,-0.1012858 -2.422e-4,-0.2731974 7.1e-5,-0.5463892 0,-0.8195882 -0.00132,-0.030614 0.00361,-0.062667 0.021187,-0.088367 0.021957,-0.033846 0.062073,-0.052776 0.1018025,-0.053744 z m 1.2386841,0 c 0.028671,-0.00114 0.058187,0.00549 0.082166,0.021704 0.033824,0.021974 0.052766,0.062092 0.053743,0.1018026 2.422e-4,0.2613699 -7.09e-5,0.5225599 0,0.7839314 -8.753e-4,0.028356 0.00317,0.057486 -0.00413,0.085266 -0.00919,0.038568 -0.038825,0.071487 -0.076481,0.084232 -0.04093,0.01407 -0.089236,0.010484 -0.1255737,-0.013953 -0.033542,-0.022124 -0.051824,-0.062239 -0.05271,-0.1018026 -2.626e-4,-0.2730825 7.1e-5,-0.545987 0,-0.8190714 -0.00129,-0.030615 0.0036,-0.062671 0.021187,-0.088367 0.021937,-0.033857 0.062084,-0.052768 0.1018026,-0.053744 z" />
    <g
       id="g8"
       transform="matrix(0.0088708,0,0,0.0088708,2.2290708,3.2290796)"
       style="fill:#00ff00"
       mask="none">
      <g
         id="g3"
         style="fill:#00ff00">
        <g
           id="g2"
           style="fill:#00ff00" />
      </g>
      <g
         id="g5"
         style="fill:#00ff00"
         inkscape:transform-center-x="-0.0079326923"
         inkscape:transform-center-y="0.056396485">
        <g
           id="g4"
           style="fill:#00ff00" />
      </g>
      <g
         id="g7"
         style="fill:#00ff00">
        <g
           id="g6"
           style="fill:#00ff00" />
      </g>
    </g>
    <g
       id="text1"
       style="font-size:1.5875px;font-family:Sans;-inkscape-font-specification:Sans;letter-spacing:0px;stroke-width:0.264583"
       aria-label="WS2812B&#10;light">
      <path
         style="font-weight:bold;-inkscape-font-specification:'Sans Bold';text-align:center;text-anchor:middle"
         d="m 2.5227659,11.045753 -0.288925,1.133475 h -0.27305 L 1.8068034,11.583915 q -0.00476,-0.01746 -0.0127,-0.05239 -0.00635,-0.03492 -0.015875,-0.0762 -0.00794,-0.04128 -0.014288,-0.07779 -0.00635,-0.0381 -0.00953,-0.05874 -0.00159,0.02064 -0.00953,0.05874 -0.00635,0.03651 -0.014288,0.07779 -0.00794,0.03969 -0.015875,0.0762 -0.00794,0.03492 -0.0127,0.05397 l -0.1524,0.593725 h -0.27305 L 0.98765345,11.045753 H 1.2241909 l 0.1444625,0.619125 q 0.00953,0.03651 0.020638,0.09207 0.011113,0.05556 0.020638,0.111125 0.00953,0.05556 0.014288,0.09366 0.00476,-0.03969 0.014288,-0.09366 0.00953,-0.05556 0.01905,-0.106363 0.011112,-0.05239 0.01905,-0.08096 l 0.1651,-0.635 h 0.2270125 l 0.1651,0.635 q 0.00794,0.02699 0.017463,0.07938 0.011112,0.05239 0.020637,0.10795 0.00953,0.05556 0.014288,0.09366 0.00476,-0.03969 0.014288,-0.09366 0.00953,-0.05556 0.020637,-0.111125 0.0127,-0.05556 0.020637,-0.09207 l 0.1444625,-0.619125 z m 0.8112141,0.81915 q 0,0.150812 -0.1095375,0.2413 -0.10795,0.0889 -0.307975,0.0889 -0.1793875,0 -0.320675,-0.06826 v -0.223837 q 0.080963,0.03492 0.1666875,0.06509 0.087312,0.02858 0.1730375,0.02858 0.0889,0 0.1254125,-0.03334 0.0381,-0.03493 0.0381,-0.08731 0,-0.04286 -0.030162,-0.07303 -0.028575,-0.03016 -0.077787,-0.05556 -0.049213,-0.02699 -0.1127125,-0.05715 -0.039687,-0.01905 -0.085725,-0.04445 -0.046037,-0.02699 -0.0889,-0.06509 -0.041275,-0.03969 -0.068263,-0.09525 -0.026987,-0.05556 -0.026987,-0.13335 0,-0.1524 0.1031875,-0.236537 0.1031875,-0.08573 0.2809875,-0.08573 0.0889,0 0.168275,0.02064 0.080963,0.02064 0.168275,0.05874 L 3.25143,11.296578 q -0.077787,-0.03175 -0.1397,-0.04921 -0.061913,-0.01746 -0.127,-0.01746 -0.068262,0 -0.104775,0.03175 -0.036512,0.03175 -0.036512,0.08255 0,0.06033 0.053975,0.09525 0.053975,0.03492 0.1603375,0.08573 0.087313,0.04127 0.1476375,0.08573 0.061913,0.04445 0.09525,0.104775 0.033338,0.06032 0.033338,0.149225 z m 0.9191634,0.314325 H 3.4609809 V 12.01254 l 0.2841625,-0.287337 q 0.085725,-0.0889 0.1381125,-0.147638 0.052388,-0.06033 0.0762,-0.10795 0.023813,-0.04921 0.023813,-0.104775 0,-0.06826 -0.0381,-0.1016 -0.036513,-0.03334 -0.1000125,-0.03334 -0.065087,0 -0.127,0.03016 -0.061913,0.03016 -0.130175,0.08572 l -0.130175,-0.153987 q 0.049213,-0.04286 0.1031875,-0.07938 0.055562,-0.03651 0.127,-0.05874 0.073025,-0.02381 0.174625,-0.02381 0.111125,0 0.1905,0.04128 0.080963,0.03969 0.123825,0.109537 0.04445,0.06826 0.04445,0.155575 0,0.09366 -0.0381,0.17145 -0.036512,0.07779 -0.10795,0.153988 -0.06985,0.0762 -0.1698625,0.168275 l -0.14605,0.136525 v 0.01111 h 0.4937125 z m 0.5064133,-1.147763 q 0.098425,0 0.1793875,0.03016 0.08255,0.03016 0.1317625,0.09049 0.0508,0.06033 0.0508,0.1524 0,0.1016 -0.058738,0.168275 -0.05715,0.06509 -0.1444625,0.10795 0.060325,0.03175 0.1143,0.07461 0.055563,0.04128 0.0889,0.09843 0.034925,0.05556 0.034925,0.131762 0,0.09366 -0.0508,0.163513 -0.049213,0.06985 -0.1397,0.10795 -0.0889,0.0381 -0.206375,0.0381 -0.1905,0 -0.295275,-0.08096 -0.1031875,-0.08096 -0.1031875,-0.22225 0,-0.117475 0.0635,-0.188912 0.0635,-0.07144 0.1539875,-0.115888 -0.0762,-0.04763 -0.130175,-0.1143 -0.052388,-0.06826 -0.052388,-0.169862 0,-0.09049 0.0508,-0.150813 0.0508,-0.06033 0.13335,-0.09049 0.084137,-0.03016 0.1793875,-0.03016 z m -0.00159,0.174625 q -0.058737,0 -0.098425,0.03016 -0.0381,0.03016 -0.0381,0.08573 0,0.05874 0.041275,0.09525 0.041275,0.03651 0.096838,0.0635 0.053975,-0.0254 0.09525,-0.06032 0.041275,-0.03651 0.041275,-0.09843 0,-0.05556 -0.039687,-0.08573 -0.0381,-0.03016 -0.098425,-0.03016 z m -0.174625,0.671513 q 0,0.06191 0.042863,0.1016 0.04445,0.03969 0.130175,0.03969 0.0889,0 0.13335,-0.0381 0.04445,-0.0381 0.04445,-0.1016 0,-0.04286 -0.0254,-0.07461 -0.0254,-0.03334 -0.0635,-0.05874 -0.036512,-0.02699 -0.0762,-0.04921 l -0.020638,-0.01111 q -0.073025,0.03492 -0.1190625,0.08096 -0.046037,0.04604 -0.046037,0.111125 z m 1.285876,0.301625 H 5.6295077 V 11.52359 q 0,-0.04128 0.00159,-0.10795 0.00317,-0.06668 0.00476,-0.117475 -0.00794,0.0095 -0.034925,0.03493 -0.0254,0.02381 -0.047625,0.04286 l -0.130175,0.104775 -0.1158875,-0.144463 0.365125,-0.290512 h 0.19685 z m 1.1080755,0 H 6.1851332 V 12.01254 l 0.2841625,-0.287337 q 0.085725,-0.0889 0.1381125,-0.147638 0.052388,-0.06033 0.0762,-0.10795 0.023813,-0.04921 0.023813,-0.104775 0,-0.06826 -0.0381,-0.1016 -0.036512,-0.03334 -0.1000125,-0.03334 -0.065087,0 -0.127,0.03016 -0.061913,0.03016 -0.130175,0.08572 l -0.130175,-0.153987 q 0.049212,-0.04286 0.1031875,-0.07938 0.055562,-0.03651 0.127,-0.05874 0.073025,-0.02381 0.174625,-0.02381 0.111125,0 0.1905,0.04128 0.080963,0.03969 0.123825,0.109537 0.04445,0.06826 0.04445,0.155575 0,0.09366 -0.0381,0.17145 -0.036513,0.07779 -0.10795,0.153988 -0.06985,0.0762 -0.1698625,0.168275 l -0.14605,0.136525 v 0.01111 h 0.4937125 z m 0.5476881,-1.133475 q 0.2270125,0 0.3429,0.0635 0.1158875,0.0635 0.1158875,0.223837 0,0.09684 -0.046037,0.163513 -0.04445,0.06668 -0.1285875,0.08096 v 0.0079 q 0.05715,0.01111 0.1031875,0.03969 0.046037,0.02858 0.073025,0.08255 0.026988,0.05398 0.026988,0.142875 0,0.153988 -0.111125,0.2413 -0.111125,0.08731 -0.3048,0.08731 H 7.1725588 v -1.133475 z m 0.026987,0.449262 q 0.104775,0 0.1444625,-0.03334 0.041275,-0.03334 0.041275,-0.09684 0,-0.06509 -0.047625,-0.09366 -0.047625,-0.02858 -0.1508125,-0.02858 h -0.127 v 0.252412 z m -0.1397,0.1905 v 0.295275 h 0.1571625 q 0.10795,0 0.1508125,-0.04128 0.042863,-0.04286 0.042863,-0.112712 0,-0.0635 -0.04445,-0.1016 -0.042863,-0.03969 -0.1571625,-0.03969 z"
         id="path2" />
      <path
         style="font-weight:bold;-inkscape-font-specification:'Sans Bold';text-align:center;text-anchor:middle"
         d="M 3.0498197,14.163603 H 2.8132823 v -1.2065 h 0.2365374 z m 0.366713,-1.2065 q 0.052388,0 0.090488,0.0254 0.0381,0.02381 0.0381,0.09049 0,0.06509 -0.0381,0.09049 -0.0381,0.0254 -0.090488,0.0254 -0.053975,0 -0.092075,-0.0254 -0.036513,-0.0254 -0.036513,-0.09049 0,-0.06668 0.036513,-0.09049 0.0381,-0.0254 0.092075,-0.0254 z m 0.117475,0.339725 v 0.866775 H 3.2974702 v -0.866775 z m 0.528638,-0.01587 q 0.1603375,0 0.250825,0.127 h 0.00635 l 0.01905,-0.111125 h 0.200025 v 0.868362 q 0,0.185738 -0.1095375,0.282575 -0.1095375,0.09684 -0.32385,0.09684 -0.092075,0 -0.17145,-0.01111 -0.077787,-0.01111 -0.1524,-0.03969 V 14.30489 q 0.1603375,0.06668 0.3381375,0.06668 0.1825625,0 0.1825625,-0.19685 v -0.01746 q 0,-0.02699 0.00159,-0.05556 0.00317,-0.02858 0.00476,-0.0508 h -0.00635 q -0.04445,0.06826 -0.1063625,0.09842 -0.061913,0.03016 -0.1397,0.03016 -0.1539875,0 -0.2413,-0.117475 -0.085725,-0.119063 -0.085725,-0.3302 0,-0.212725 0.0889,-0.331788 0.0889,-0.119062 0.244475,-0.119062 z m 0.074612,0.192087 q -0.1666875,0 -0.1666875,0.261938 0,0.258762 0.1698625,0.258762 0.090488,0 0.13335,-0.0508 0.04445,-0.05239 0.04445,-0.180975 v -0.02858 q 0,-0.1397 -0.042863,-0.200025 -0.042863,-0.06033 -0.1381125,-0.06033 z m 0.8858241,-0.269875 q 0,0.0635 -0.00476,0.122238 -0.00318,0.05874 -0.00635,0.08255 h 0.0127 q 0.041275,-0.06667 0.1063625,-0.09684 0.065087,-0.03016 0.1444625,-0.03016 0.1412875,0 0.225425,0.0762 0.085725,0.07461 0.085725,0.2413 v 0.56515 H 5.3501073 V 13.65719 q 0,-0.187325 -0.1397,-0.187325 -0.1063625,0 -0.1476375,0.07461 -0.039688,0.07302 -0.039688,0.211137 v 0.407988 H 4.7865448 v -1.2065 h 0.2365375 z m 1.1715744,0.7874 q 0.039687,0 0.0762,-0.0079 0.036512,-0.0079 0.073025,-0.01905 v 0.176212 q -0.0381,0.01588 -0.09525,0.02699 -0.055562,0.0127 -0.1222375,0.0127 -0.077788,0 -0.1397,-0.0254 -0.060325,-0.0254 -0.096837,-0.08731 -0.034925,-0.0635 -0.034925,-0.174625 V 13.474628 H 5.7422192 v -0.100013 l 0.130175,-0.07938 0.068263,-0.182562 h 0.1508125 v 0.18415 h 0.2428875 v 0.1778 H 6.0914692 v 0.417512 q 0,0.04921 0.028575,0.07461 0.028575,0.02381 0.074613,0.02381 z"
         id="path3" />
    </g>
  </g>
</svg>
